<?xml version="1.0" encoding="UTF-8" standalone="no"?>
<!-- Created with Inkscape (http://www.inkscape.org/) -->

<svg
   xmlns:dc="http://purl.org/dc/elements/1.1/"
   xmlns:cc="http://creativecommons.org/ns#"
   xmlns:rdf="http://www.w3.org/1999/02/22-rdf-syntax-ns#"
   xmlns:svg="http://www.w3.org/2000/svg"
   xmlns="http://www.w3.org/2000/svg"
   xmlns:xlink="http://www.w3.org/1999/xlink"
   xmlns:sodipodi="http://sodipodi.sourceforge.net/DTD/sodipodi-0.dtd"
   xmlns:inkscape="http://www.inkscape.org/namespaces/inkscape"
   id="svg2"
   sodipodi:docname="nasapower-hex.svg"
   viewBox="0 0 155.55118 179.99998"
   version="1.1"
   inkscape:version="0.92.2 5c3e80d, 2017-08-06"
   width="4.3899999cm"
   height="5.0799999cm"
   inkscape:export-filename="/Users/asparks/Development/nasapower/man/figures/nasapower-hex.png"
   inkscape:export-xdpi="90.709999"
   inkscape:export-ydpi="90.709999">
  <title
     id="title3413">nasapower</title>
  <defs
     id="defs4">
    <linearGradient
       inkscape:collect="always"
       id="linearGradient4187">
      <stop
         style="stop-color:#e2d20e;stop-opacity:1;"
         offset="0"
         id="stop4189" />
      <stop
         style="stop-color:#ef6e00;stop-opacity:1"
         offset="1"
         id="stop4191" />
    </linearGradient>
    <style
       id="style22186">.cls-1{fill:none;}.cls-2{fill:#ba6f38;}.cls-3{clip-path:url(#clip-path);}.cls-4{fill:#ed7d15;}.cls-5{opacity:0.25;fill:url(#linear-gradient);}.cls-6{fill:#ac5d12;}.cls-7{clip-path:url(#clip-path-2);}.cls-8{fill:#36a85d;}.cls-9{fill:#e6b35a;}.cls-10{fill:#fff;}.cls-11{opacity:0.94;}</style>
    <clipPath
       id="clip-path">
      <polygon
         id="polygon22189"
         points="369.5,845 2.8,636.6 2.8,214.5 369.5,7.4 369.5,7.4 728.2,214.5 728.2,636.6 "
         class="cls-1"
         style="fill:none" />
    </clipPath>
    <radialGradient
       inkscape:collect="always"
       xlink:href="#linearGradient4187"
       id="radialGradient4197"
       cx="193.67343"
       cy="518.56464"
       fx="193.67343"
       fy="518.56464"
       r="362.70001"
       gradientTransform="matrix(0.99999992,0,0,1.1546733,1.6295682e-5,-65.921754)"
       gradientUnits="userSpaceOnUse" />
    <radialGradient
       inkscape:collect="always"
       xlink:href="#linearGradient4187"
       id="radialGradient3409"
       gradientUnits="userSpaceOnUse"
       gradientTransform="matrix(0.99999992,0,0,1.1546733,1.6295682e-5,-65.921754)"
       cx="193.67343"
       cy="518.56464"
       fx="193.67343"
       fy="518.56464"
       r="362.70001" />
    <radialGradient
       inkscape:collect="always"
       xlink:href="#linearGradient4187"
       id="radialGradient3411"
       gradientUnits="userSpaceOnUse"
       gradientTransform="matrix(0.99999992,0,0,1.1546733,1.6295682e-5,-65.921754)"
       cx="193.67343"
       cy="518.56464"
       fx="193.67343"
       fy="518.56464"
       r="362.70001" />
  </defs>
  <sodipodi:namedview
     id="base"
     bordercolor="#666666"
     inkscape:pageshadow="2"
     inkscape:window-y="0"
     pagecolor="#ffffff"
     inkscape:window-height="1006"
     inkscape:window-maximized="1"
     inkscape:zoom="1"
     inkscape:window-x="0"
     showgrid="false"
     borderopacity="1.0"
     inkscape:current-layer="layer1"
     inkscape:cx="-229.52443"
     inkscape:cy="145.79759"
     inkscape:window-width="1680"
     inkscape:pageopacity="0.0"
     inkscape:document-units="px"
     fit-margin-top="0"
     fit-margin-left="0"
     fit-margin-right="0"
     fit-margin-bottom="0"
     units="cm" />
  <g
     id="layer1"
     inkscape:label="Layer 1"
     inkscape:groupmode="layer"
     transform="translate(1791.5878,11.261005)">
    <text
       xml:space="preserve"
       style="font-style:normal;font-weight:normal;line-height:0%;font-family:sans-serif;letter-spacing:0px;word-spacing:0px;fill:#000000;fill-opacity:1;stroke:none;stroke-width:1px;stroke-linecap:butt;stroke-linejoin:miter;stroke-opacity:1"
       x="-1128.9001"
       y="-11.74138"
       id="text5476"><tspan
         sodipodi:role="line"
         id="tspan5478"
         x="-1128.9001"
         y="-11.74138"
         style="font-size:40px;line-height:1.25"> </tspan></text>
    <g
       transform="matrix(0.72484839,1.2953625,-1.2953626,0.72484843,-671.26984,-964.12141)"
       id="g4147"
       style="fill:#004878;fill-opacity:1" />
    <g
       id="g3388"
       transform="matrix(0.62714284,0,0,0.62846771,-639.00717,29.254079)"
       inkscape:export-filename="/Users/adamsparks/Development/nasapower/man/figures/logo.png"
       inkscape:export-xdpi="75.220001"
       inkscape:export-ydpi="75.220001">
      <title
         id="title3407">nasapower</title>
      <g
         style="fill:url(#radialGradient4197);fill-opacity:1"
         transform="matrix(0.33754967,0,0,0.33754967,-1837.8617,-64.804002)"
         clip-path="url(#clip-path)"
         id="g22203"
         class="cls-3">
        <circle
           id="circle22205"
           r="442.10001"
           cy="437.39999"
           cx="365.5"
           class="cls-4"
           style="fill:url(#radialGradient3409);fill-opacity:1" />
        <ellipse
           id="ellipse22207"
           ry="234.60001"
           rx="315.20001"
           cy="105.8"
           cx="366.89999"
           class="cls-5"
           style="opacity:0.25;fill:url(#radialGradient3411);fill-opacity:1" />
      </g>
      <path
         id="path22209"
         d="m -1599.6867,1.4232429 -93.7713,-54.1429669 -20.3542,-11.746729 -20.3543,11.746729 -93.7713,54.1429669 -9.8902,5.7045894 V 150.35016 l 9.8902,5.70459 94.919,54.81806 19.2066,11.07163 19.2066,-11.07163 94.9189,-54.81806 9.8902,-5.70459 V 7.1278323 Z m 0,143.5598771 -114.1255,65.88969 -114.1256,-65.88969 V 13.169971 l 114.1256,-65.889695 v 0 l 114.1255,65.889695 z"
         class="cls-6"
         inkscape:connector-curvature="0"
         style="fill:#3366cc;fill-opacity:1" />
      <path
         id="path22217"
         d="m -1727.483,153.89443 0.3038,-0.3038 h -0.1012 z"
         class="cls-9"
         inkscape:connector-curvature="0"
         style="fill:#e6b35a" />
      <text
         inkscape:transform-center-y="-7.1059813"
         inkscape:transform-center-x="-16.079462"
         transform="rotate(0.7346563)"
         id="text4366"
         y="174.54648"
         x="-1802.9253"
         style="font-style:normal;font-weight:normal;line-height:0%;font-family:sans-serif;letter-spacing:0px;word-spacing:0px;fill:#4d4d4d;fill-opacity:1;stroke:none;stroke-width:1px;stroke-linecap:butt;stroke-linejoin:miter;stroke-opacity:1"
         xml:space="preserve"><tspan
           style="font-style:normal;font-variant:normal;font-weight:normal;font-stretch:normal;font-size:33.75496674px;line-height:1.25;font-family:'Fira Code';-inkscape-font-specification:'Fira Code';fill:#4d4d4d;fill-opacity:1"
           y="174.54648"
           x="-1802.9253"
           id="tspan4368"
           sodipodi:role="line">nasapower</tspan></text>
      <g
         clip-path="none"
         id="g4448">
        <path
           id="path4994"
           sodipodi:r2="25.545271"
           style="fill:#f5ff12"
           sodipodi:type="star"
           d="m 247.06959,101.72403 c -1.66758,1.48148 -21.79531,-13.541219 -23.99581,-12.809942 -2.2005,0.731277 -0.64026,27.504392 -2.87239,27.554682 -2.23213,0.0503 -13.47461,-22.337607 -15.43117,-23.1681 -1.95655,-0.830494 -11.19995,10.18388 -13.2221,9.10845 -2.02215,-1.07542 1.82621,-18.316369 0.65188,-20.172755 -1.17432,-1.856386 -23.2999,0.987099 -23.87741,-1.181349 -0.57751,-2.168449 22.54789,-15.416408 22.65481,-17.648832 0.10692,-2.232424 -19.65731,-14.956347 -18.51854,-16.880872 1.13877,-1.924525 24.15543,3.26867 25.84976,1.737305 1.69433,-1.531365 -1.50533,-22.803432 0.48445,-23.804182 1.98979,-1.000749 10.46971,14.960387 12.6647,14.617883 2.19498,-0.342504 14.15717,-13.455376 16.41745,-13.076002 2.26029,0.379374 -0.60104,21.23188 1.341,22.292367 1.94203,1.060486 22.27981,-10.11448 23.54308,-8.37394 1.26328,1.740541 -14.62729,23.728811 -13.7893,25.835038 0.838,2.106226 18.04771,2.099526 17.63268,4.235389 -0.41502,2.135864 -21.24973,6.925695 -21.92336,9.047746 -0.67363,2.12205 14.05784,21.205634 12.39027,22.687114 z"
           sodipodi:r1="44.382629"
           inkscape:flatsided="false"
           sodipodi:arg1="0.79570711"
           sodipodi:arg2="1.144773"
           transform="translate(-1915.2509,-63.382307)"
           inkscape:randomized="-0.092"
           sodipodi:cy="68.567673"
           sodipodi:cx="214.17128"
           inkscape:rounded="0.1"
           sodipodi:sides="9" />
        <g
           id="g4444">
          <ellipse
             style="fill:#ffff00;fill-opacity:1;stroke:#ffff00;stroke-width:6.15377045;stroke-miterlimit:0.5;stroke-opacity:1"
             id="path4996"
             cx="-1701.4042"
             cy="2.9207823"
             rx="30.435976"
             ry="25.540504" />
          <path
             inkscape:connector-curvature="0"
             id="path4990"
             style="fill:#ffffff;stroke:#ffffff;stroke-width:6.15399981;stroke-linecap:round;stroke-linejoin:round;stroke-miterlimit:0.5;stroke-opacity:1"
             d="m -1654.6687,-5.449379 c -5.8,0 -10.76,3.021 -13.2,7.36 -0.97,-0.543 -2.05,-0.875 -3.2,-0.875 -3.46,0 -6.34,2.785 -7.23,6.566 -1.52,-0.6 -3.28,-0.972 -5.16,-0.972 -5.67,0 -10.27,3.102 -10.27,6.923 0,3.448 3.77,6.285 8.67,6.809 -0.22,0.372 -0.4,0.744 -0.4,1.135 0,3.658 10.03,6.631 22.38,6.631 12.35,0 22.37,-2.973 22.37,-6.631 0,-0.246 -0.16,-0.474 -0.25,-0.713 0.54,0.134 1.09,0.275 1.68,0.275 3.3,0 5.98,-2.246 5.98,-5.01 0,-2.763 -2.68,-4.993 -5.98,-4.993 -0.4,0 -0.76,0.13 -1.14,0.194 0.33,-1.105 0.56,-2.238 0.56,-3.437 0,-7.315 -6.63,-13.262 -14.81,-13.262 z" />
        </g>
      </g>
      <g
         clip-path="none"
         id="layer1-7"
         inkscape:label="Layer 1"
         transform="matrix(0.74,0,0,-0.74,-1982.5858,464.5071)">
        <path
           id="path3882"
           sodipodi:nodetypes="ccccccccccccccccccccscccccccccccccccccccccccccccccccccccccccccccccccccsccccccccccccccccccccccccccccsccccccccccccccccccccccccccccccccccccccccccccccccccccccccccccccccccccccccccccc"
           style="fill:#838383"
           inkscape:connector-curvature="0"
           d="m 356.28,470.56 c -19.511,2.6026 -36.642,12.695 -48.41,27.312 h 21.156 c 6.8205,-12.328 16.125,-22.392 27.256,-26.269 0.62718,-0.22613 3.8954,-1.5369 -10e-4,-1.0428 z m 20.009,1.0276 c 10.995,3.8121 20.211,13.662 27.014,25.772 0.30717,0.52674 0.3404,0.51197 0.99493,0.51197 h 19.501 c 0.59201,0.003 0.64973,-0.31689 0.50279,-0.54538 -11.764,-14.335 -28.729,-24.214 -48.018,-26.773 -2.891,-0.28036 -2.0947,0.36644 0.006,1.0343 z m -8.0935,0.33785 c -0.48767,0 -0.88844,0.40667 -0.88844,0.91511 v 24.034 c 0.0257,0.69143 0.2944,0.97487 1.0044,0.9974 h 32.007 c 0.84304,-0.007 0.47446,-0.7324 0.40281,-0.97553 -6.2332,-10.804 -14.805,-20.111 -26.789,-23.962 -1.8141,-0.58288 -3.7119,-0.87216 -5.625,-1 -0.0423,-0.006 -0.0675,-0.009 -0.11156,-0.009 z m -3.8884,0.0401 c -14.864,1.2766 -25.747,13.198 -32.969,25.906 h 33.008 c 0.70387,-0.0258 0.92804,-0.3551 0.96035,-1.0304 v -24.001 c 0,-0.4969 -0.38733,-0.875 -0.875,-0.875 z m -58.734,28.901 c -5.5808,7.6929 -9.7144,16.489 -12.056,25.998 -0.29769,0.96182 0.0648,1.0075 0.79058,1.0075 h 23.007 c 1.0609,-0.005 0.86316,-0.28329 1.0085,-0.9836 1.8606,-8.7877 4.9625,-17.812 9.1357,-26.036 0.81848,-1.106 0.1757,-0.99235 -0.14344,-0.98073 h -20.449 c -0.6986,-0.0126 -0.93549,0.50765 -1.2934,0.9946 z m 24.1,0.0286 c -0.74074,1.4242 -1.4347,2.845 -2.085,4.258 -3.2571,6.917 -5.7215,14.226 -7.2648,21.702 -0.29435,1.1136 -0.0419,0.99811 0.49736,1.0164 h 43.492 c 0.78763,-0.0138 1.0207,-0.16184 0.99444,-1.0067 v -25.993 c -0.0165,-0.64806 -0.33084,-0.99836 -0.99339,-1.0004 h -33.009 c -1.0396,-0.004 -1.2204,0.24165 -1.6314,1.0232 z m 37.634,-0.0118 v 26 c 0.0117,0.88095 0.31425,0.98527 0.99514,0.98878 h 43.689 c 0.40825,-0.0171 0.58501,-0.15004 0.39166,-1.0025 -0.75602,-3.5664 -1.756,-7.0955 -3.0128,-10.56 -1.7484,-5.1117 -3.8695,-10.387 -6.4544,-15.446 -0.41195,-0.84966 -0.50612,-0.99069 -1.1399,-0.99194 h -33.453 c -0.64901,-0.003 -0.98314,0.33892 -1.0154,1.0114 z m 37.86,-0.009 c 4.1785,8.2395 7.282,17.281 9.1392,26.083 0.18596,0.94408 0.38786,0.89527 0.83365,0.91492 h 23.58 c 0.72726,0.006 0.56924,-0.2131 0.3805,-0.999 -2.3414,-9.5118 -6.4758,-18.311 -12.058,-26.006 -0.58022,-0.79943 -0.77739,-0.98459 -1.2572,-0.99493 h -20.467 c -0.79933,-1.6e-4 -0.31209,0.79017 -0.151,1.0025 z m -112.55,29.982 c -0.85725,4.5385 -1.3072,9.2294 -1.3072,14.016 0,4.792 0.44575,9.4622 1.3042,14.002 0.18498,0.85436 0.44114,0.98048 0.69403,0.99793 h 24.009 c 0.38791,-0.0184 0.3429,-0.49458 0.24784,-1.039 -0.82486,-4.8495 -1.2551,-9.5619 -1.2551,-13.961 0,-4.4158 0.43352,-9.1471 1.2645,-14.016 0.31115,-1.0079 0.0585,-1.0029 -0.23931,-0.98405 h -24.027 c -0.56725,-0.007 -0.64723,0.64216 -0.69101,0.98417 z m 26.997,-1.3e-4 c -1.499,9.2686 -1.6141,18.738 -0.13087,27.994 0.0672,1.0015 0.24506,1.0209 0.82159,1.0216 h 44.028 c 0.73699,-0.0249 1.0019,-0.40394 0.97655,-1.0006 v -27.999 c -0.0279,-0.86967 -0.27738,-0.98692 -0.99444,-1.0008 h -43.993 c -0.55145,0.0229 -0.60164,0.34054 -0.70861,0.98404 z m 47.696,0.0346 v 27.963 c 0.0346,0.64855 0.28339,1.0829 1.0309,1.0185 h 43.993 c 0.67854,-0.0302 0.5474,-0.41892 0.64419,-0.99768 1.5083,-9.2748 1.6102,-18.734 0.12406,-28.001 -0.14677,-0.848 -0.26385,-0.9996 -0.76825,-1.001 h -44.028 c -0.83829,-0.008 -0.99054,0.27062 -0.99514,1.0187 z m 47.738,-0.0201 c 0.82935,4.8638 1.262,9.5901 1.262,14.001 0,4.4052 -0.43146,9.1246 -1.2586,13.981 -0.32362,0.99448 -0.11471,1.008 0.25198,1.0188 h 24.009 c 0.56569,-0.0103 0.5747,-0.38945 0.69008,-0.98078 0.86061,-4.5453 1.3075,-9.2211 1.3075,-14.019 0,-4.7875 -0.45021,-9.4795 -1.3078,-14.019 -0.31185,-1.2398 -0.36461,-0.98526 -0.68972,-0.98103 h -23.991 c -0.51519,-0.002 -0.37339,0.42624 -0.27331,0.99859 z m -121.53,31.992 c 2.3502,9.5353 6.5066,18.378 12.112,26.086 0.50158,0.60656 0.72972,0.713 1.6917,0.92305 h 19.412 c 0.89274,0.0336 1.0501,-0.0574 0.72661,-0.98716 -4.171,-8.221 -7.2715,-17.241 -9.1317,-26.025 -0.13881,-0.84981 -0.3892,-0.9695 -0.97351,-0.98739 h -23.025 c -0.75451,0.0132 -1.025,0.10587 -0.81218,0.99071 z m 26.746,-0.008 c 0.75293,3.566 1.7345,7.0863 2.9859,10.548 1.7574,5.1169 3.8827,10.381 6.4657,15.438 0.40054,0.69635 0.502,0.74086 1.3545,1.0306 h 33.254 c 0.76348,0.0621 1.0117,-0.16132 0.9883,-1.0736 v -25.937 c -0.0272,-0.48179 -0.12293,-0.92932 -0.99444,-0.98896 h -43.528 c -0.68323,0.0236 -0.66069,0.33168 -0.52646,0.98302 z m 47.048,0.006 v 26.004 c -0.0685,0.75331 0.31584,1.0538 1.0475,1.007 h 32.92 c 1.0002,-0.0429 1.3136,-0.4165 1.5805,-0.96686 4.324,-8.1891 7.5365,-16.999 9.4104,-26.053 0.28744,-1.0892 0.016,-0.95853 -0.50777,-0.97989 h -43.456 c -0.6712,0.0128 -1.0392,0.30861 -0.99514,0.98896 z m 46.983,-0.002 c -1.8424,8.7003 -4.9015,17.632 -9.0123,25.789 -0.62454,0.97583 -0.46065,1.2266 0.7665,1.2233 h 19.279 c 1.1136,0.0204 1.5141,-0.64438 1.8156,-1.1297 5.5256,-7.6542 9.627,-16.416 11.957,-25.859 0.33844,-1.1984 -0.002,-1.0139 -0.39485,-1.0116 h -23.615 c -0.7685,0.0199 -0.65781,0.32492 -0.79527,0.98725 z m -105.52,30.078 c 11.747,14.043 28.525,23.726 47.571,26.255 3.8836,0.3951 4.5516,0.0904 -0.0231,-1.0352 -10.838,-3.7589 -19.948,-13.385 -26.721,-25.259 -0.33731,-0.56502 -0.69078,-0.95905 -1.4058,-1.0258 h -18.812 c -0.87684,0.0556 -0.99031,0.15457 -0.60979,1.0643 z m 23.128,-0.0715 c 6.2127,10.76 14.769,20.037 26.779,23.945 1.8701,0.5661 3.7452,0.88661 5.6029,1.0125 0.90865,-0.0575 0.86006,-0.19183 1.0221,-0.93985 v -23.982 c 0.0223,-0.6583 -0.31074,-1.0057 -1,-1.0414 l -31.975,0.0124 c -0.91903,0.12941 -0.96622,0.1279 -0.42953,0.99325 z m 35.404,0.002 v 24.015 c -0.0309,0.83925 0.1832,0.98051 1.0463,0.9199 11.857,-1.027 22.747,-9.9087 29.141,-19.899 1.0471,-1.5591 2.034,-3.1478 2.9853,-4.7661 0.34653,-0.56043 0.53963,-1.204 -0.93921,-1.2652 h -31.219 c -0.62394,-0.0358 -1.012,0.23161 -1.0142,0.99521 z m 35.732,-0.0166 c -6.7794,11.902 -15.905,21.552 -26.765,25.312 -2.4459,0.65095 -5.128,1.6761 0.0193,1.026 18.762,-2.4981 35.32,-11.938 47.035,-25.648 0.92972,-1.2646 0.95998,-1.6347 -0.007,-1.6681 h -18.478 c -1.271,0.0715 -1.5063,0.3857 -1.805,0.97862 z" />
        <path
           id="path4024"
           style="fill:#4d4d4d"
           inkscape:connector-curvature="0"
           d="m 435.53,511.22 c 0.96481,2.1221 1.8173,4.2659 2.6875,6.375 0.002,0.004 0.0297,-0.004 0.0312,0 3.9958,0.42021 7.8124,1.3828 10.812,4 1.1747,3.6734 -3.1282,7.3321 -5.75,9.6875 -28.847,20.674 -63.796,31.347 -98.5,37.781 -19.103,2.6318 -39.129,7.2829 -57.938,0.96875 -3.253,-0.0557 -5.0318,-3.2399 -3,-5.875 2.1009,-2.1886 4.2964,-4.2086 6.5938,-6.125 -0.64918,-2.294 -0.90933,-4.7424 -1,-7.2188 -9.1321,6.683 -13.834,13.093 -12.438,18.25 3.6102,13.327 46.503,13.295 95.812,-0.0625 49.309,-13.3575 86.36,-34.986 82.75,-48.312 -1.4013,-5.1728 -8.743,-8.3207 -20.062,-9.4688 z" />
      </g>
      <g
         inkscape:transform-center-y="0.92226546"
         inkscape:transform-center-x="15.1046"
         transform="matrix(0.16606624,-0.24984396,0.24984396,0.16606624,-2006.6255,65.55375)"
         id="layer1-3">
        <path
           inkscape:connector-curvature="0"
           id="path9574"
           d="m 477.69004,477.65545 c -1.2274,0 -2.2154,0.988 -2.2154,2.2154 v 28.541 c 0,1.2273 0.988,2.2154 2.2154,2.2154 h 2.1012 v 13.7616 h -16.6642 v -12.8391 c 0,-1.2274 -0.9881,-2.2154 -2.2155,-2.2154 h -96.14971 c -1.2273,0 -2.2154,0.988 -2.2154,2.2154 v 30.0659 c 0,1.2273 0.9881,2.2154 2.2154,2.2154 h 96.14971 c 1.2274,0 2.2155,-0.9881 2.2155,-2.2154 v -12.8392 h 16.6642 v 19.932 c 0,1.2274 0.9881,2.2154 2.2154,2.2154 h 17.0779 c 1.2273,0 2.2154,-0.988 2.2154,-2.2154 v -19.932 h 16.6659 v 12.8392 c 0,1.2273 0.9881,2.2154 2.2155,2.2154 h 96.1497 c 1.2273,0 2.2154,-0.9881 2.2154,-2.2154 v -30.0659 c 0,-1.2274 -0.9881,-2.2154 -2.2154,-2.2154 h -96.1497 c -1.2274,0 -2.2155,0.988 -2.2155,2.2154 v 12.8391 h -16.6659 v -13.7616 h 2.1012 c 1.2274,0 2.2154,-0.9881 2.2154,-2.2154 v -28.541 c 0,-1.2274 -0.988,-2.2154 -2.2154,-2.2154 z m 12.8564,75.5929 c -9.512,0 -18.9661,1.9574 -25.6921,5.3205 -6.726,3.363 -10.641,8.09 -10.641,12.846 h 34.7563 l 1.5768,19.3591 1.5768,-19.3591 h 34.7563 c 0,-4.756 -3.915,-9.483 -10.641,-12.846 -6.726,-3.3631 -16.1801,-5.3205 -25.6921,-5.3205 z"
           style="color:#000000;clip-rule:nonzero;display:inline;overflow:visible;visibility:visible;color-interpolation:sRGB;color-interpolation-filters:linearRGB;fill:#808080;fill-opacity:1;fill-rule:nonzero;stroke:none;stroke-width:15;marker:none;color-rendering:auto;image-rendering:auto;shape-rendering:auto;text-rendering:auto;enable-background:accumulate" />
      </g>
    </g>
  </g>
  <metadata
     id="metadata207">
    <rdf:RDF>
      <cc:Work>
        <dc:format>image/svg+xml</dc:format>
        <dc:type
           rdf:resource="http://purl.org/dc/dcmitype/StillImage" />
        <cc:license
           rdf:resource="http://creativecommons.org/publicdomain/zero/1.0/" />
        <dc:publisher>
          <cc:Agent
             rdf:about="http://openclipart.org/">
            <dc:title />
          </cc:Agent>
        </dc:publisher>
        <dc:title>nasapower</dc:title>
        <dc:date>2017-12-12</dc:date>
        <dc:description>R nasapower package hex sticker, https://adamhsparks.github.io/nasapower/</dc:description>
        <dc:source>https://adamhsparks.github.io/nasapower/inst/vector/</dc:source>
        <dc:creator>
          <cc:Agent>
            <dc:title>adamhsparks</dc:title>
          </cc:Agent>
        </dc:creator>
        <dc:subject>
          <rdf:Bag>
            <rdf:li>R</rdf:li>
            <rdf:li>hexsticker</rdf:li>
          </rdf:Bag>
        </dc:subject>
        <dc:rights>
          <cc:Agent>
            <dc:title>CC0</dc:title>
          </cc:Agent>
        </dc:rights>
        <dc:contributor>
          <cc:Agent>
            <dc:title>Josh &quot;Cheeseness&quot; Bush, anonymous, bnielsen, Nikita Prokopov</dc:title>
          </cc:Agent>
        </dc:contributor>
      </cc:Work>
      <cc:License
         rdf:about="http://creativecommons.org/publicdomain/zero/1.0/">
        <cc:permits
           rdf:resource="http://creativecommons.org/ns#Reproduction" />
        <cc:permits
           rdf:resource="http://creativecommons.org/ns#Distribution" />
        <cc:permits
           rdf:resource="http://creativecommons.org/ns#DerivativeWorks" />
      </cc:License>
    </rdf:RDF>
  </metadata>
</svg>
